<svg xmlns="http://www.w3.org/2000/svg" width="77" height="20" viewBox="0 0 77 20" version="1.1"><g id="Page-1" stroke="none" stroke-width="1" fill="none" fill-rule="evenodd"><g id="jobs-day-az-2"><g id="Page-1"><g id="jobs-day-az"><g id="dayaz"><path d="M76.52 5.36C76.08 4.84 75.39 4.55 74.55 4.55L66.37 4.55C65.97 4.55 65.62 4.84 65.55 5.24L65.08 7.91C65.04 8.16 65.11 8.4 65.26 8.59 65.42 8.78 65.65 8.89 65.9 8.89L68.61 8.89 65.37 11.09C64.4 11.75 63.91 12.51 63.71 13.65 63.55 14.56 63.71 15.36 64.17 15.9 64.45 16.24 64.97 16.64 65.87 16.64L74.47 16.64C74.87 16.64 75.21 16.35 75.28 15.95L75.77 13.16C75.81 12.92 75.75 12.67 75.59 12.48 75.43 12.29 75.2 12.18 74.95 12.18L72.18 12.18 75.29 10.07C76.19 9.47 76.75 8.58 76.95 7.44 77.1 6.58 76.95 5.88 76.52 5.36L76.52 5.36ZM60.85 3.36C60.29 1.05 58.29 1.05 57.21 1.05 54.8 1.05 53.85 1.85 53.08 3.13L45.88 15.38C45.72 15.64 45.72 15.96 45.87 16.22 46.02 16.48 46.29 16.64 46.59 16.64L51.24 16.64C51.54 16.64 51.82 16.48 51.96 16.21L53.29 13.81 57.06 13.81 57.5 15.97C57.58 16.36 57.92 16.64 58.31 16.64L62.96 16.64C63.21 16.64 63.45 16.52 63.61 16.32 63.77 16.12 63.82 15.86 63.77 15.61L60.85 3.36 60.85 3.36ZM56.24 8.99L55.79 8.99 56.13 8.37 56.24 8.99 56.24 8.99ZM43.54 4.98C43.4 4.71 43.12 4.55 42.82 4.55L38.99 4.55C38.7 4.55 38.44 4.7 38.28 4.95L35.3 9.84 34.21 5.19C34.12 4.82 33.78 4.55 33.4 4.55L29.49 4.55C29.23 4.55 28.99 4.67 28.83 4.89 28.67 5.1 28.63 5.37 28.7 5.62L31.69 15.67 29.69 18.71C29.52 18.96 29.51 19.29 29.65 19.56 29.8 19.83 30.08 20 30.38 20L34.21 20C34.5 20 34.76 19.85 34.91 19.61L43.52 5.83C43.68 5.57 43.69 5.25 43.54 4.98L43.54 4.98ZM25.35 4.55L18.5 4.55C18.09 4.55 17.75 4.84 17.68 5.24L17.23 7.83C17.18 8.08 17.25 8.33 17.41 8.52 17.52 8.65 17.67 8.74 17.84 8.79 17.72 8.85 17.6 8.92 17.48 9 17 9.32 16.67 9.72 16.42 10.16 16.5 9.79 16.58 9.4 16.65 8.99 17.09 6.47 16.86 4.59 15.94 3.24 15.05 1.93 13.55 1.21 11.71 1.21L3.58 1.24C3.19 1.24 2.85 1.52 2.77 1.91L0.14 15.66C0.09 15.9 0.16 16.15 0.31 16.35 0.47 16.54 0.71 16.65 0.95 16.65L0.95 16.65 9.63 16.64C11.57 16.64 13.33 15.91 14.47 14.64 14.95 14.11 15.35 13.45 15.69 12.61 15.55 13.52 15.46 14.91 16.29 15.81 17.03 16.64 18.12 16.64 18.7 16.64L24.8 16.64C25.3 16.64 26.34 16.64 27.2 15.88 28.02 15.15 28.19 14.19 28.27 13.73L29.03 9.36C29.31 7.78 29.1 6.6 28.39 5.76 28.02 5.31 27.14 4.55 25.35 4.55L25.35 4.55ZM7.88 6.41C7.9 6.29 7.93 6.23 7.94 6.2 7.98 6.19 8.05 6.18 8.18 6.18L8.52 6.18C9.44 6.18 10.03 6.23 10.29 6.51 10.44 6.66 10.75 7.19 10.49 8.66 10.19 10.37 9.77 10.87 9.63 11.01 9.15 11.49 8.25 11.55 7.52 11.55L6.98 11.55 7.88 6.41 7.88 6.41ZM42.88 10.89C41.3 10.89 40.02 12.18 40.02 13.76 40.02 15.35 41.3 16.64 42.88 16.64 44.45 16.64 45.73 15.35 45.73 13.76 45.73 12.18 44.45 10.89 42.88 10.89L42.88 10.89Z" id="Fill-1" fill-opacity="0.18" fill="#000000"/><path d="M76.52 4.56C76.08 4.04 75.39 3.76 74.55 3.76L66.37 3.76C65.97 3.76 65.62 4.05 65.55 4.45L65.08 7.12C65.04 7.36 65.11 7.61 65.26 7.8 65.42 7.99 65.65 8.1 65.9 8.1L68.61 8.1 65.37 10.29C64.4 10.95 63.91 11.72 63.71 12.86 63.55 13.76 63.71 14.56 64.17 15.11 64.45 15.45 64.97 15.84 65.87 15.84L74.47 15.84C74.87 15.84 75.21 15.55 75.28 15.16L75.77 12.36C75.81 12.12 75.75 11.87 75.59 11.68 75.43 11.5 75.2 11.39 74.95 11.39L72.18 11.39 75.29 9.27C76.19 8.68 76.75 7.79 76.95 6.64 77.1 5.79 76.95 5.09 76.52 4.56L76.52 4.56ZM60.85 2.57C60.29 0.26 58.29 0.26 57.21 0.26 54.8 0.26 53.85 1.05 53.08 2.33L45.88 14.59C45.72 14.84 45.72 15.16 45.87 15.42 46.02 15.68 46.29 15.84 46.59 15.84L51.24 15.84C51.54 15.84 51.82 15.68 51.96 15.42L53.29 13.01 57.06 13.01 57.5 15.18C57.58 15.57 57.92 15.84 58.31 15.84L62.96 15.84C63.21 15.84 63.45 15.73 63.61 15.53 63.77 15.33 63.82 15.07 63.76 14.82L60.85 2.57 60.85 2.57ZM56.24 8.2L55.79 8.2 56.13 7.57 56.24 8.2 56.24 8.2ZM43.65 4.59C43.65 4.13 43.28 3.76 42.82 3.76L38.99 3.76C38.7 3.76 38.44 3.91 38.28 4.15L35.3 9.04 34.21 4.4C34.12 4.02 33.78 3.76 33.4 3.76L29.49 3.76C29.23 3.76 28.99 3.88 28.83 4.09 28.67 4.3 28.63 4.58 28.7 4.83L31.69 14.88 29.69 17.91C29.52 18.17 29.51 18.5 29.65 18.77 29.8 19.04 30.08 19.21 30.38 19.21L34.21 19.21C34.5 19.21 34.76 19.06 34.91 18.82L43.5 5.06C43.59 4.93 43.65 4.76 43.65 4.59L43.65 4.59ZM25.35 3.76L18.5 3.76C18.09 3.76 17.75 4.05 17.68 4.45L17.23 7.04C17.18 7.28 17.25 7.53 17.41 7.72 17.52 7.86 17.67 7.95 17.84 7.99 17.72 8.05 17.6 8.12 17.48 8.2 17 8.52 16.67 8.93 16.42 9.36 16.5 9 16.58 8.61 16.65 8.2 17.09 5.68 16.86 3.8 15.94 2.45 15.05 1.14 13.55 0.42 11.71 0.42L11.71 0.42 3.58 0.44C3.19 0.44 2.85 0.73 2.77 1.12L0.14 14.86C0.09 15.11 0.16 15.36 0.31 15.55 0.47 15.74 0.71 15.85 0.95 15.85L0.95 15.85 9.63 15.84C11.56 15.84 13.33 15.11 14.48 13.84 14.95 13.32 15.35 12.65 15.69 11.82 15.55 12.73 15.46 14.12 16.3 15.03 17.03 15.84 18.12 15.84 18.7 15.84L24.8 15.84C25.34 15.84 26.34 15.84 27.2 15.09 28.02 14.36 28.19 13.4 28.27 12.93L29.03 8.57C29.31 6.99 29.1 5.8 28.39 4.96 28.02 4.51 27.14 3.76 25.35 3.76L25.35 3.76ZM10.49 7.87C10.19 9.62 9.74 10.11 9.66 10.19 9.65 10.2 9.64 10.21 9.63 10.21 9.15 10.7 8.25 10.76 7.52 10.76L6.98 10.76 6.99 10.7 7.88 5.62C7.9 5.5 7.93 5.43 7.94 5.4 7.98 5.39 8.05 5.38 8.18 5.38L8.52 5.38C9.44 5.38 10.03 5.44 10.3 5.72 10.44 5.87 10.75 6.39 10.49 7.87L10.49 7.87ZM42.88 10.1C41.3 10.1 40.02 11.39 40.02 12.97 40.02 14.56 41.3 15.84 42.88 15.84 44.45 15.84 45.73 14.56 45.73 12.97 45.73 11.39 44.45 10.1 42.88 10.1L42.88 10.1Z" id="Fill-6" fill="#FFFFFF"/><path d="M11.71 1.25L3.59 1.28 0.95 15.02 9.63 15.01C11.53 15.01 13.01 14.23 13.86 13.28 14.74 12.32 15.37 10.73 15.83 8.05 16.25 5.67 16.02 4.04 15.26 2.92 14.5 1.8 13.24 1.25 11.71 1.25L11.71 1.25 11.71 1.25ZM11.31 8.01C10.97 9.96 10.45 10.59 10.21 10.8 9.55 11.47 8.51 11.59 7.52 11.59L6.91 11.59C6.85 11.59 6.42 11.59 6.23 11.35 6.05 11.14 6.13 10.82 6.18 10.55L7.07 5.48C7.1 5.28 7.18 4.91 7.47 4.71 7.69 4.57 7.95 4.55 8.18 4.55L8.52 4.55C9.57 4.55 10.38 4.61 10.89 5.14 11.34 5.61 11.57 6.5 11.31 8.01L11.31 8.01ZM74.55 4.59L66.37 4.59 65.9 7.26 70.92 7.26C71.08 7.26 71.1 7.32 71.1 7.36 71.09 7.42 71 7.48 70.91 7.54L65.83 10.98C65.14 11.45 64.7 11.98 64.52 13.01 64.34 14.07 64.7 15.01 65.87 15.01L74.47 15.01 74.95 12.22 69.88 12.22C69.86 12.22 69.84 12.22 69.81 12.22 69.76 12.22 69.7 12.21 69.71 12.14 69.72 12.08 69.82 11.98 69.91 11.92L74.83 8.58C75.36 8.23 75.93 7.64 76.13 6.5 76.46 4.65 74.9 4.59 74.55 4.59L74.55 4.59ZM57.21 1.09C55.1 1.09 54.4 1.74 53.79 2.76L46.59 15.01 51.24 15.01 52.81 12.18 57.73 12.18 58.31 15.01 62.96 15.01 60.05 2.76C59.67 1.23 58.52 1.09 57.21 1.09L57.21 1.09ZM54.41 9.03L56.26 5.55C56.31 5.46 56.42 5.26 56.48 5.26 56.54 5.26 56.58 5.46 56.61 5.55L57.23 9.03 54.41 9.03 54.41 9.03ZM42.82 4.59L38.99 4.59 34.96 11.2 33.4 4.59 29.49 4.59 32.59 15.01 30.38 18.37 34.21 18.37 42.82 4.59 42.82 4.59ZM16.9 14.46C17.36 14.97 18.06 15.01 18.7 15.01L24.8 15.01C25.38 15.01 26.07 14.97 26.65 14.46 27.21 13.97 27.36 13.34 27.45 12.79L28.22 8.43C28.37 7.58 28.47 6.34 27.75 5.5 27.38 5.04 26.62 4.59 25.35 4.59L18.5 4.59 18.04 7.19 23.24 7.19C23.63 7.19 24.11 7.21 24.34 7.6 24.47 7.84 24.44 8.11 24.41 8.29L24.39 8.44 19.85 8.44C19.25 8.44 18.58 8.46 17.94 8.9 17.01 9.53 16.74 10.63 16.58 11.53 16.43 12.36 16.23 13.73 16.9 14.46L16.9 14.46ZM20.4 11.59C20.43 11.41 20.48 11.24 20.64 11.1 20.84 10.94 21.12 10.92 21.23 10.92L23.95 10.92 23.84 11.57C23.81 11.75 23.75 11.94 23.55 12.08 23.42 12.18 23.16 12.22 22.96 12.22L20.97 12.22C20.79 12.22 20.59 12.16 20.47 12.04 20.36 11.9 20.37 11.75 20.4 11.59L20.4 11.59ZM42.88 10.93C41.76 10.93 40.85 11.84 40.85 12.97 40.85 14.1 41.76 15.01 42.88 15.01 43.99 15.01 44.9 14.1 44.9 12.97 44.9 11.84 43.99 10.93 42.88 10.93L42.88 10.93Z" id="Fill-11" fill="#666666"/></g></g></g></g></g></svg>
