<svg xmlns="http://www.w3.org/2000/svg" viewBox="0 0 85 35.6" enable-background="new 0 0 85 35.6"><text transform="translate(0 31.625)" fill="#9999A1" font-family="'Arial'" font-size="11">партнер проекта</text><g><path fill="#ADADAC" d="M17.3 12.8c-.4.9-.8 1.7-1.3 2.3-1.3 1.4-3.2 2.2-5.3 2.2h-9.4v.2c0 .1 0 .3.1.4.1.1.2.2.4.2h9.6c2 0 3.8-.8 5-2.1.4-.4.7-1 1-1.6-.3-.6-.2-1.1-.1-1.6z"/><path fill="#ADADAC" d="M18.1 10.1l.4-.6c.2-1.3.2-2.4 0-3.4 0 .8-.1 1.7-.2 2.7-.1.5-.2.9-.2 1.3z"/><path fill="#ADADAC" d="M82.1 17.3h-9.5c-.5 0-.9-.1-1.2-.3l.2.4c.2.3.7.7 1.5.7h9.5c.2 0 .4-.2.5-.4l.5-3.1c0-.1 0-.3-.1-.4l-.1-.1-.4 2.5c-.1.4-.5.7-.9.7z"/><path fill="#ADADAC" d="M72.8 8.7v.2c0 .1 0 .3.1.4s.2.2.3.2h1.3l1.1-.8h-2.8z"/><path fill="#ADADAC" d="M84.9 6.8v.3c-.3 1.3-.9 2.3-1.9 2.9l-3.4 2.3h1.6l2.2-1.5c.9-.6 1.4-1.5 1.6-2.6.1-.5 0-1-.1-1.4z"/><path fill="#ADADAC" d="M58.7 14.2l-1.5 2.7c-.2.3-.5.5-.8.5h-4.9v.1c-.1.1-.1.3 0 .5.1.1.2.2.4.2h5.1c.2 0 .3-.1.4-.2l1.6-2.9h4l-.2-.8h-4.1z"/><path fill="#ADADAC" d="M61.5 8.8h.5l-.1-.7z"/><path fill="#ADADAC" d="M70.2 16.7c0 .1-.1.2-.1.2-.2.2-.4.4-.7.4h-5.1l.1.4c0 .2.2.4.4.4h5.2c.1 0 .3-.1.4-.2.1-.1.1-.3.1-.4l-.3-.8z"/><path fill="#ADADAC" d="M48.2 6c0-.2-.2-.4-.4-.5l-9.3 15c-.2.3-.5.4-.8.4h-4v.1c-.1.1-.1.3 0 .5.1.1.2.2.4.2h4.2c.2 0 .3-.1.4-.2l9.5-15.3v-.2z"/><path fill="#ADADAC" d="M32 9.2l-.8 4.8c-.1.5-.3 1.6-1.2 2.4-.9.8-2.1.8-2.7.8h-6.7c-.5 0-1.3 0-2.1-.4.1.2.2.3.3.4.6.7 1.5.8 2.3.8h6.7c.5 0 1.5 0 2.3-.7.7-.6.9-1.4 1-2.1l.8-4.8c.2-.9.1-1.7 0-2.3.2.3.1.7.1 1.1z"/><path fill="#ADADAC" d="M50.4 14.5c-.2 1.6-1.5 2.8-3.1 2.8-.6 0-1.2-.2-1.7-.5.5.8 1.3 1.3 2.3 1.3 1.5 0 2.7-1.2 2.7-2.7-.1-.3-.2-.6-.2-.9z"/><path fill="#5276AE" d="M83.9 5.8c-.3-1-1.4-1-1.7-1h-9l-.5 3h5.5c.2 0 .2.1.2.1 0 .1-.1.1-.2.2l-2 1.4-3.6 2.4c-.8.5-1.3 1.1-1.4 2.2-.1.5-.1 1 .1 1.4.2.5.6.9 1.4.9h9.5l.4-2.3.1-.8h-5.799999999999999c-.1 0-.1 0-.1-.1s.1-.2.2-.2l5.4-3.7c.6-.4 1.2-1 1.4-2.3.2-.5.2-.9.1-1.2z"/><path fill="#5276AE" d="M66.2 2.8c-.1-.3-.2-.5-.2-.7-.6-1.1-1.7-1.2-2.9-1.2-2.3 0-3.1.7-3.8 1.9l-8 13.6h5.2l1.7-3.1h5.4l.6 3.1h5.1l-3.1-13.6zm-4.2 3.1c.1-.1.2-.3.3-.3.1 0 .1.2.1.3l.7 3.9h-3.1l2-3.9z"/><path fill="#5276AE" d="M43 4.8l-3.9 6.5-.6.9-1.5-6.6-.2-.8h-4.3l.2.9 3.2 10.7-.2.3-2.2 3.4h4.2l9-14.5.5-.8z"/><path fill="#5276AE" d="M23.6 13.6c-.1 0-.1.1-.1.3v.1h2.4000000000000004c.2 0 .3 0 .4-.1.1 0 .1-.1.1-.3v-.2h-2.5c-.1.1-.3.2-.3.2z"/><path fill="#5276AE" d="M49.2 13c-.4-.7-1.1-1.2-1.9-1.2-1.2 0-2.2 1-2.2 2.3 0 .3.1.6.2.8.3.9 1.1 1.5 2.1 1.5 1.2 0 2.2-1 2.2-2.3-.1-.4-.2-.7-.4-1.1z"/><path d="M10.6 11.1c.1-.1.6-.7 1-2.6.2-.9.1-1.5 0-1.8-.4-.1-.9-.2-1.7-.2h-.4c-.2 0-.4 0-.5.1-.1 0-.2.2-.3.5l-.7 4.6h.3c.7 0 1.7-.1 2.3-.6z" fill="none"/><path fill="#ADADAC" d="M9 6.6c.1-.1.3-.1.5-.1h.4c.7 0 1.2 0 1.7.2-.1-.3-.2-.5-.3-.6-.3-.3-1-.4-2-.4h-.6s0 .1-.1.2l-1 5.6v.1h.4l.8-4.6c0-.2.1-.4.2-.4z"/><g fill="#5276AE"><path d="M30.8 6.2l-.2-.3c-.4-.5-1.2-1-2.6-1h-7.6l-.5 2.9h5.7c.4 0 1 0 1.2.5.1.3.1.6.1.8v.2h-5c-.5 0-1.1 0-1.6.2-.2.1-.3.1-.5.3-1 .7-1.3 1.9-1.5 2.9-.1.7-.3 1.7 0 2.5.1.3.2.6.4.8.5.6 1.3.6 2 .6h6.7c.6 0 1.4 0 2-.6.6-.5.8-1.2.9-1.9l.8-4.8c.1-1.1.2-2.2-.3-3.1zm-8.3 6.9c-.1-.2-.1-.3-.1-.5s.1-.4.3-.5c.2-.2.5-.2.7-.2h3l-.1.7c0 .2-.1.4-.3.6-.1.1-.4.2-.7.2h-2.2l-.6-.3z"/><path d="M16.8 3c0-.1-.1-.1 0 0-.9-1.3-2.3-1.9-3.9-1.9h-9l-2.9 15.3h9.5c2.1 0 3.7-.9 4.7-1.9 1-1.1 1.7-2.8 2.2-5.8.5-2.7.2-4.5-.6-5.7zm-4.4 5.6c-.4 2.2-1 2.9-1.2 3.1-.7.7-1.9.9-3 .9h-.6000000000000001c-.1 0-.5 0-.8-.3-.2-.2-.1-.6-.1-.9l1-5.6c0-.2.1-.6.4-.9.3-.1.6-.1.9-.1h.4c1.2 0 2.1.1 2.6.7.4.4.6 1.1.6 2.2-.1.2-.1.6-.2.9z"/></g><path fill="#fff" d="M11.5 8.5c-.3 2-.8 2.5-.9 2.6-.6.5-1.6.6-2.4.6h-.2l-.1.5h.4c.9 0 2-.1 2.7-.7.2-.2.7-.9 1.1-2.9.1-.6.1-1.2.1-1.7-.1-.1-.3-.2-.5-.2-.1.3 0 .9-.2 1.8z"/><path fill="#fff" d="M9.3 5.2h-.3c-.2 0-.4 0-.5.1-.2.1-.3.3-.3.6l-1 5.7c0 .1-.1.4 0 .4 0 0 .2.1.4.1h.3l.1-.4h-.4v-.1l1-5.6c0-.1.1-.2.1-.2h.7c1 0 1.7.1 2 .4.1.1.2.2.3.6.2.1.4.1.5.2-.2-.6-.3-1-.6-1.3-.4-.4-1.1-.5-2.3-.5z"/><path fill="#fff" d="M11.2 11.7c.3-.2.8-.9 1.2-3.1.1-.4.1-.7.1-1-.1-.3-.2-.5-.3-.7l-.1-.1c0 .5 0 1-.1 1.7-.3 2-.9 2.6-1.1 2.9-.6.7-1.8.7-2.7.7h-.3l-.1.5h.4c1.1 0 2.3-.1 3-.9z"/><path fill="#fff" d="M7.6 12.1c-.2 0-.4-.1-.4-.1v-.4l1-5.7c0-.3.1-.5.2-.5.2-.2.4-.2.6-.2h.4c1.2 0 1.9.1 2.3.5.2.3.3.7.4 1.2l.1.1c.2.2.3.4.3.7.1-1.1-.2-1.8-.6-2.2-.6-.6-1.5-.7-2.6-.7h-.3c-.3 0-.5 0-.8.2-.3.2-.4.6-.5.8l-1 5.6c-.1.3-.1.7.1.9.2.3.7.3.8.3h.2l.1-.5h-.3z"/><path fill="#fff" d="M17.5 2.4c-1-1.5-2.6-2.3-4.7-2.3h-9c-.3.1-.7.4-.8.9l-2.9 15.2c-.1.3 0 .6.2.8.2.2.4.3.7.3h9.6c2.1 0 4.1-.8 5.3-2.2.5-.6 1-1.3 1.3-2.3l.1-.5c.1-.7.3-1.5.7-2.2.1-.4.2-.8.3-1.3.2-1 .2-1.9.2-2.7 0-1.5-.3-2.7-1-3.7zm-6.9 14h-9.5l2.8-15.3h9c1.6 0 3 .6 3.8 1.8 0 0 0 .1.1.1.8 1.2 1.1 3.1.6 5.7-.5 3-1.2 4.7-2.2 5.8-.9 1-2.5 1.9-4.6 1.9z"/><path fill="#fff" d="M84.4 4.8c-.5-.6-1.2-.9-2.2-.9h-9c-.4 0-.8.3-.9.8l-.5 3c0 .3 0 .5.2.8.2.2.4.3.7.3h3l-1.1.8-2.4 1.7c-1.1.7-1.6 1.6-1.8 2.9-.2 1 0 1.9.5 2.5.2.2.4.4.7.5.3.2.7.3 1.2.3h9.5c.4 0 .8-.3.9-.8l.4-2.4.1-.7c0-.3 0-.5-.2-.8s-.4-.3-.7-.3h-3.1l3.3-2.5c1-.7 1.6-1.6 1.8-2.9v-.3c.2-.8 0-1.5-.4-2zm-.5 2.1c-.2 1.3-.9 1.9-1.4 2.3l-5.4 3.8-.2.2c0 .1.1.1.1.1h5.7l-.1.8-.4 2.3h-9.5c-.7 0-1.2-.4-1.4-.9-.2-.4-.2-.9-.1-1.4.2-1.1.7-1.7 1.4-2.2l3.6-2.4 2-1.4c.1-.1.2-.1.2-.2 0 0 0-.1-.2-.1h-5.5l.5-3h9c.3 0 1.4 0 1.7 1 .1.3.1.7 0 1.1z"/><path fill="#fff" d="M62.4 8.5l-.4.8h.5z"/><path fill="#fff" d="M62.1 6.7l-1.3 2.6h1.2l.4-.8-.3-1.8zm-.6 2.1l.4-.7.1.7h-.5z"/><path fill="#fff" d="M62 9.3h-1.2l1.3-2.6.3 1.7.2-.4.4 1.8h.1l-.7-3.9c0-.1-.1-.3-.1-.3-.1 0-.2.2-.3.3l-2 3.9h1.7l.3-.5z"/><path fill="#fff" d="M70.3 16.2l-3.2-13.6c-.6-2.6-2.8-2.6-4-2.6-2.7 0-3.7.9-4.6 2.3l-8 13.6c-.2.3-.2.6 0 .9.2.3.5.5.8.5h5.1000000000000005c.3 0 .6-.2.8-.5l1.5-2.7h4.2l.2.8.3 1.6c.1.4.5.7.9.7h5.1c.3 0 .5-.1.7-.4.1-.1.1-.2.1-.2.1 0 .1-.2.1-.4zm-6 .2l-.6-3.1h-5.4l-1.7 3.1h-5.2l8-13.6c.7-1.1 1.4-1.9 3.8-1.9 1.2 0 2.3.1 2.9 1.2.1.2.2.4.2.6l3.2 13.6h-5.2z"/><path fill="#fff" d="M38.9 10.6l-1.1-4.7c0-.2-.2-.3-.4-.3l1.3 5.3.2-.3z"/><path fill="#fff" d="M47.2 3.9h-4.2c-.3 0-.6.2-.8.4l-3.3 5.4-1.2-5.2c-.1-.4-.5-.7-.9-.7h-4.3c-.3 0-.6.1-.7.4-.2.2-.2.5-.1.8l3.3 11.2-2.2 3.4c-.2.3-.2.6 0 .9.2.3.5.5.8.5h4.2c.3 0 .6-.2.8-.4l9.3-15 .2-.3c-.1-.1 0-.3 0-.5 0-.5-.4-.9-.9-.9zm-.5 1.7l-9 14.5h-4.2l2.3-3.4.2-.3-3.3-10.7-.3-.9h4.3l.3.8 1.5 6.6.5-.9 4-6.5h4.2l-.5.8z"/><path fill="#fff" d="M31.3 5.2c-.4-.5-1.4-1.3-3.3-1.3h-7.6c-.4 0-.8.3-.9.8l-.5 2.9c0 .3 0 .5.2.8.1.1.3.3.5.3l-.4.2c-.3.2-.5.4-.7.7-.2.2-.3.4-.4.6-.2 1-.5 1.9-.8 2.7-.1.5-.1 1-.1 1.6 0 .7.2 1.4.8 2 .2.2.4.4.6.5.7.4 1.6.4 2.1.4h6.7c.6 0 1.7 0 2.7-.8.9-.8 1.1-1.9 1.2-2.4l.6-5c.1-.4.1-.8.1-1.2 0-1.1-.2-2.1-.8-2.8zm-4 11.2h-6.7c-.7 0-1.5 0-2-.6-.2-.2-.3-.5-.4-.8-.2-.8-.1-1.8 0-2.5.2-1 .5-2.2 1.5-2.9l.5-.3c.6-.2 1.1-.2 1.6-.2h5v-.2c0-.2.1-.5-.1-.8-.2-.4-.8-.5-1.2-.5h-5.7l.5-2.9h7.6c1.4 0 2.2.5 2.6 1 .1.1.2.2.2.3.5.9.4 2.1.3 2.9l-.8 4.8c-.1.6-.3 1.3-.9 1.9-.6.7-1.4.8-2 .8z"/><path fill="#fff" d="M17.3 12.8c.3-.8.6-1.7.8-2.7-.4.7-.6 1.5-.7 2.2-.1.2-.1.4-.1.5z"/><path fill="#fff" d="M47.2 10.9c-1.7 0-3.2 1.4-3.2 3.2 0 1.1.6 2.1 1.4 2.7.5.3 1.1.5 1.7.5 1.6 0 2.9-1.2 3.1-2.8v-.4c.2-1.7-1.2-3.2-3-3.2zm0 5.5c-1 0-1.8-.6-2.1-1.5-.1-.3-.2-.5-.2-.8 0-1.3 1-2.3 2.2-2.3.8 0 1.6.5 1.9 1.2.2.3.3.7.3 1.1.2 1.3-.8 2.3-2.1 2.3z"/></g></svg>
