<svg width="88" height="48" viewBox="0 0 88 48" xmlns="http://www.w3.org/2000/svg"><title>Artboard Copy</title><g fill-rule="nonzero" fill="none"><path d="M6.6.084V14.02c2.092-2.53 4.6-3.805 7.509-3.805 1.498 0 2.841.289 4.042.867 1.207.57 2.11 1.305 2.718 2.197a8.1 8.1 0 0 1 1.25 2.97c.223 1.08.334 2.76.334 5.04v14.904h-6.499V22.77c0-2.661-.118-4.35-.365-5.065a3.282 3.282 0 0 0-1.307-1.707c-.624-.427-1.404-.64-2.345-.64-1.077 0-2.043.275-2.885.816-.854.545-1.473 1.362-1.863 2.454-.397 1.093-.595 2.705-.588 4.84l-.006 12.725H.1V.084h6.5M32.197.084V14.02c2.091-2.53 4.598-3.805 7.508-3.805 1.491 0 2.84.289 4.048.867 1.2.57 2.104 1.305 2.712 2.197a8.1 8.1 0 0 1 1.25 2.97c.223 1.08.334 2.76.334 5.04v14.904h-6.495V22.77c0-2.661-.123-4.35-.37-5.065a3.28 3.28 0 0 0-1.307-1.707c-.619-.427-1.405-.64-2.346-.64-1.077 0-2.042.275-2.884.816-.848.545-1.467 1.362-1.864 2.454-.39 1.093-.586 2.705-.586 4.84v12.725h-6.495V.084h6.495M.12 47.385v-7.283h.866v2.995h3.391l-.006-2.995h.867v7.283H4.37v-3.434H.986v3.434H.12M9.764 45.684l.829.112c-.13.546-.37.961-.724 1.256-.353.3-.804.451-1.356.451-.693 0-1.238-.239-1.645-.715-.403-.471-.607-1.143-.607-1.997 0-.885.204-1.575.612-2.065.41-.49.948-.733 1.597-.733.632 0 1.146.238 1.548.715.402.483.607 1.155.607 2.027-.006.05 0 .133-.006.24H7.09c.031.576.18 1.021.44 1.33.266.308.594.465.99.465.29 0 .543-.087.755-.264.204-.17.371-.445.49-.822M7.134 44.24h2.643c-.037-.44-.137-.779-.304-.998-.254-.346-.587-.515-.996-.515-.366 0-.675.133-.923.409-.254.276-.39.647-.42 1.105M14.634 46.731c-.29.283-.575.484-.854.597a2.166 2.166 0 0 1-.879.176c-.525 0-.92-.145-1.2-.427-.28-.283-.416-.647-.422-1.087 0-.257.056-.495.161-.703.105-.214.248-.39.415-.515a1.73 1.73 0 0 1 .576-.295c.154-.05.39-.088.71-.131.652-.089 1.122-.19 1.432-.315.006-.118.006-.2.006-.232 0-.365-.081-.615-.229-.767-.204-.2-.514-.3-.91-.3-.377 0-.656.07-.835.22-.18.145-.316.408-.397.78l-.785-.12c.067-.37.185-.672.353-.904.16-.232.395-.408.704-.533.31-.12.663-.182 1.072-.182.402 0 .73.05.983.155.255.108.44.24.558.396.118.164.205.365.249.615.025.151.044.427.044.823v1.193c0 .829.012 1.356.048 1.576.031.22.106.426.205.634h-.836a2.173 2.173 0 0 1-.168-.654m-.061-1.996c-.291.133-.73.245-1.306.34-.335.05-.57.112-.706.182a.685.685 0 0 0-.31.288.802.802 0 0 0-.117.42c0 .238.086.44.247.596.162.164.396.239.706.239.315 0 .589-.069.829-.22.237-.157.415-.363.527-.627.086-.202.13-.496.13-.892v-.326M19.643 47.385v-.666c-.297.521-.737.785-1.318.785-.379 0-.725-.113-1.041-.352a2.187 2.187 0 0 1-.73-.966c-.18-.415-.26-.891-.26-1.438 0-.52.075-1.004.23-1.431.16-.427.395-.753.711-.985.31-.227.662-.34 1.058-.34.279 0 .533.063.756.2.222.133.402.309.544.529v-2.619h.793v7.283h-.743m-2.526-2.637c-.007.678.124 1.187.378 1.52.26.333.557.502.904.502.352 0 .65-.163.891-.477.247-.326.371-.81.371-1.468 0-.722-.13-1.25-.377-1.589-.248-.332-.557-.502-.923-.502-.352 0-.65.164-.891.484-.235.326-.359.835-.353 1.532M21.735 47.385v-7.283h.86v2.995h3.392v-2.995h.866v7.283h-.866V43.95h-3.391v3.435h-.86M31.244 47.385v-.78c-.366.604-.867.898-1.505.898-.278 0-.539-.056-.78-.18a1.296 1.296 0 0 1-.539-.447 1.843 1.843 0 0 1-.246-.666 5.195 5.195 0 0 1-.05-.835v-3.264h.804v2.925c0 .465.018.778.05.942.05.239.156.42.316.552.168.137.366.2.607.2.242 0 .47-.068.68-.206.204-.132.36-.327.446-.559.088-.238.131-.577.131-1.03v-2.823h.798v5.272h-.71M33.168 47.385V42.11h.718v.748c.345-.578.854-.866 1.51-.866.279 0 .544.056.78.17.241.111.42.262.538.445.118.187.204.407.248.665.031.162.05.451.05.866v3.246h-.804v-3.208c0-.364-.032-.641-.094-.817a.857.857 0 0 0-.328-.432 1.013 1.013 0 0 0-.564-.164c-.34 0-.637.12-.885.365-.247.239-.371.697-.365 1.375l-.006 2.882h-.798M39.94 46.581l.118.79a2.51 2.51 0 0 1-.608.082c-.29 0-.513-.05-.674-.156a.818.818 0 0 1-.34-.402c-.062-.164-.093-.521-.093-1.055v-3.038h-.595v-.69h.595v-1.306l.798-.54-.006 1.845h.804v.692h-.804v3.087c0 .252.012.415.044.49.025.07.073.133.135.176a.56.56 0 0 0 .279.063c.087 0 .204-.013.347-.038M43.92 45.684l.823.112c-.13.546-.37.961-.723 1.262-.354.294-.806.445-1.35.445-.694 0-1.245-.239-1.647-.715-.408-.471-.613-1.143-.613-1.997 0-.885.211-1.575.62-2.065.408-.49.94-.733 1.59-.733.632 0 1.152.238 1.555.715.396.483.6 1.155.6 2.027 0 .05-.006.133-.006.24h-3.528c.03.576.18 1.021.44 1.33.266.308.594.465.99.465.29 0 .545-.087.755-.264.204-.17.371-.445.495-.822m-2.63-1.444h2.636c-.037-.44-.135-.779-.303-.998-.254-.346-.588-.515-.99-.515-.372 0-.68.133-.929.409-.254.276-.39.647-.414 1.105M45.697 47.385V42.11h.724v.798c.18-.377.347-.622.507-.742a.827.827 0 0 1 .508-.174c.278 0 .552.093.829.288l-.277.83a1.028 1.028 0 0 0-.589-.197.706.706 0 0 0-.471.177.95.95 0 0 0-.296.49c-.094.313-.131.664-.131 1.042v2.761h-.804" fill="#000"/><path d="M85.18 23.626c0 9.045-7.162 16.369-15.995 16.369-8.835 0-15.999-7.324-15.999-16.37 0-9.04 7.163-16.37 15.998-16.37 8.833 0 15.996 7.33 15.996 16.37" fill="#D6001C"/><g fill="#FFF"><path d="M65.09 25.845c.452-.492.679-1.275.679-2.35 0-1.009-.215-1.777-.645-2.305-.43-.527-1.005-.791-1.727-.791-.983 0-1.662.46-2.035 1.377-.197.49-.295 1.091-.295 1.808 0 .619.106 1.169.315 1.65.38.9 1.062 1.35 2.046 1.35.656 0 1.21-.246 1.662-.738zm-.955-7.634c.682.28 1.233.795 1.652 1.544V18.22h2.725V28.32c0 1.375-.232 2.41-.699 3.106-.799 1.199-2.334 1.798-4.602 1.798-1.37 0-2.487-.268-3.354-.802-.865-.534-1.344-1.332-1.435-2.393h3.048c.08.326.208.56.385.704.3.253.81.38 1.524.38 1.01 0 1.684-.335 2.026-1.006.222-.43.334-1.153.334-2.17v-.682c-.27.456-.557.798-.867 1.026-.556.424-1.28.634-2.173.634-1.376 0-2.476-.48-3.3-1.44-.822-.96-1.234-2.263-1.234-3.902 0-1.583.397-2.914 1.191-3.991.793-1.079 1.918-1.617 3.373-1.617.537 0 1.006.081 1.406.244v.002zM77.249 18.464c.715.333 1.305.858 1.77 1.574.42.631.692 1.365.817 2.198.072.488.101 1.192.088 2.11h-7.337c.04 1.068.377 1.816 1.013 2.247.387.266.852.399 1.397.399.577 0 1.046-.162 1.407-.488.196-.176.37-.42.52-.733h2.862c-.072.632-.403 1.274-.992 1.924-.919 1.035-2.204 1.553-3.856 1.553a5.457 5.457 0 0 1-3.61-1.31c-1.042-.872-1.564-2.291-1.564-4.257 0-1.843.47-3.257 1.412-4.24.941-.983 2.162-1.475 3.663-1.475.892 0 1.696.166 2.41.498zm-3.92 2.404c-.357.404-.58.95-.673 1.642h4.358c-.047-.737-.271-1.296-.675-1.677-.402-.38-.902-.57-1.499-.57-.648 0-1.153.2-1.51.604v.001z"/></g></g></svg>