<svg xmlns="http://www.w3.org/2000/svg" xmlns:xlink="http://www.w3.org/1999/xlink" viewBox="0 0 80 80"><g fill="none" fill-rule="evenodd"><circle cx="40" cy="40" r="38.8" stroke="#D81921" stroke-width="2.5"/><path id="a" fill="#d81921" d="M22.5 20.4v13.8c2-2.5 4.6-3.7 7.5-3.7 1.5 0 3 .3 4 .8 1.3.6 2.2 1.3 2.8 2.2.6 1 1 2 1.2 3 .3 1 .4 2.7.4 5V56H32V43c0-2.8-.3-4.4-.5-5-.3-.8-.7-1.4-1.3-1.8-.6-.4-1.4-.7-2.4-.7s-2 .3-3 1c-.7.4-1.3 1.2-1.7 2.3-.3 1-.5 2.7-.5 4.8V56H16V20.5z"/><use x="25.5" xlink:href="#a"/></g></svg>