<svg xmlns="http://www.w3.org/2000/svg" xmlns:xlink="http://www.w3.org/1999/xlink" width="22" height="22" viewBox="0 0 22 22" version="1.1"><defs><path id="path-1" d="M0.01 10.62C0.21 4.72 5.05 0 11 0 17.08 0 22 4.92 22 11 22 17.08 17.08 22 11 22 5.05 22 0.21 17.28 0.01 11.38L0.01 10.62 0.01 10.62Z"/><path id="path-3" d="M1.86 0.1L1.86 3.84C2.43 3.16 3.11 2.82 3.9 2.82 4.31 2.82 4.67 2.89 5 3.05 5.33 3.2 5.58 3.4 5.74 3.64 5.91 3.88 6.02 4.14 6.08 4.44 6.14 4.73 6.17 5.18 6.17 5.79L6.17 9.79 4.4 9.79 4.4 6.19C4.4 5.47 4.37 5.02 4.3 4.83 4.24 4.63 4.12 4.48 3.95 4.37 3.78 4.25 3.57 4.2 3.31 4.2 3.02 4.2 2.75 4.27 2.52 4.42 2.29 4.56 2.12 4.78 2.02 5.07 1.91 5.37 1.85 5.8 1.86 6.37L1.85 9.79 0.09 9.79 0.09 0.1 1.86 0.1 1.86 0.1Z"/><path id="path-5" d="M1.79 0.1L1.79 3.84C2.36 3.16 3.04 2.82 3.83 2.82 4.24 2.82 4.6 2.89 4.93 3.05 5.26 3.2 5.51 3.4 5.67 3.64 5.84 3.88 5.95 4.14 6.01 4.44 6.07 4.73 6.1 5.18 6.1 5.79L6.1 9.79 4.33 9.79 4.33 6.19C4.33 5.47 4.3 5.02 4.23 4.83 4.17 4.63 4.05 4.48 3.88 4.37 3.71 4.25 3.5 4.2 3.24 4.2 2.95 4.2 2.68 4.27 2.45 4.42 2.22 4.56 2.05 4.78 1.95 5.07 1.84 5.37 1.79 5.8 1.79 6.37L1.79 9.79 0.02 9.79 0.02 0.1 1.79 0.1 1.79 0.1Z"/></defs><g id="Page-1" stroke="none" stroke-width="1" fill="none" fill-rule="evenodd"><g id="min-hh-red-3"><g id="Group-3"><mask id="mask-2" fill="white"><use xlink:href="#path-1"/></mask><g id="Clip-2"/><path d="M0.01 0L22.01 0 22.01 22 0.01 22 0.01 0Z" id="Fill-1" fill="#666666" mask="url(#mask-2)"/></g><g id="Group-6" transform="translate(4.290000, 5.720000)"><mask id="mask-4" fill="white"><use xlink:href="#path-3"/></mask><g id="Clip-5"/><path d="M0.09 0.08L6.18 0.08 6.18 9.8 0.09 9.8 0.09 0.08Z" id="Fill-4" fill="#FFFFFF" mask="url(#mask-4)"/></g><g id="Group-9" transform="translate(11.330000, 5.720000)"><mask id="mask-6" fill="white"><use xlink:href="#path-5"/></mask><g id="Clip-8"/><path d="M0.02 0.08L6.11 0.08 6.11 9.8 0.02 9.8 0.02 0.08Z" id="Fill-7" fill="#FFFFFF" mask="url(#mask-6)"/></g></g></g></svg>
