<svg xmlns="http://www.w3.org/2000/svg" width="30" height="30"><g clip-path="url(#clip0)"><path fill="#D6001C" d="M30 13.1L15 2.92l-4.15 2.83V1.8H7.3v6.35L0 13.11l1.34 1.93 3.38-2.3v15.94h20.56V12.74l3.38 2.3L30 13.1z"/><path fill="#fff" fill-rule="evenodd" d="M9.95 13.66v3.91a2.76 2.76 0 013.34-.83 1.9 1.9 0 011.15 1.45c.06.3.1.78.1 1.42v4.17h-1.89v-3.77c0-.75-.03-1.21-.1-1.42a.88.88 0 00-.38-.48c-.19-.11-.41-.17-.68-.17-.3 0-.6.08-.83.22a1.3 1.3 0 00-.54.7c-.12.3-.18.75-.17 1.35v3.57H8.08V13.65h1.87v.01zM17.35 13.66v3.91a2.76 2.76 0 013.33-.83c.35.16.6.37.78.62.17.25.29.52.36.83.07.3.1.78.1 1.42v4.17h-1.87v-3.77c0-.75-.04-1.21-.11-1.42a.88.88 0 00-.38-.48c-.18-.11-.41-.17-.67-.17-.32 0-.6.08-.84.22-.24.16-.42.38-.54.7-.11.3-.16.75-.16 1.35v3.57h-1.87V13.65h1.87v.01z" clip-rule="evenodd"/></g><defs><clipPath id="clip0"><path fill="#fff" d="M0 1.8h30v26.88H0z"/></clipPath></defs></svg>