<svg xmlns="http://www.w3.org/2000/svg" width="30" height="30"><path fill="#D6001C" d="M30 15c0 8.289-6.716 15.001-15 15.001-8.283 0-15-6.712-15-15.001C0 6.716 6.717 0 14.999 0 23.284 0 30 6.716 30 15z"/><path d="M8.455 7.739v5.147c.783-.934 1.722-1.405 2.812-1.405.561 0 1.064.107 1.515.32.452.211.791.482 1.018.811.23.332.385.696.469 1.097.084.398.125 1.021.125 1.862v5.503h-2.436v-4.956c0-.984-.043-1.607-.136-1.872a1.207 1.207 0 00-.489-.63c-.234-.159-.526-.236-.878-.236a1.98 1.98 0 00-1.08.301c-.321.202-.552.503-.698.906-.149.403-.223.999-.22 1.788l-.003 4.699H6.021V7.739h2.434zm9.587 0v5.147c.783-.934 1.722-1.405 2.812-1.405.559 0 1.064.107 1.518.32.449.211.787.482 1.015.811.229.332.385.696.469 1.097.083.398.125 1.021.125 1.862v5.503h-2.433v-4.956c0-.984-.046-1.607-.139-1.872a1.207 1.207 0 00-.489-.63c-.232-.159-.526-.236-.879-.236a1.98 1.98 0 00-1.079.301c-.317.202-.55.503-.698.906-.146.403-.22.999-.22 1.788v4.699H15.61V7.739h2.432z" fill="#fff"/></svg>