<svg xmlns="http://www.w3.org/2000/svg" viewBox="0 0 31 13.18"><path d="M31 6c0 3.09-2.49 5.59-5.57 5.59S19.86 9.09 19.86 6 22.35.41 25.43.41 31 2.91 31 6" fill="#d6001c"/><path d="M.25 10.23l2.11.27c.04.26.12.44.24.54.17.14.45.21.83.21.48 0 .84-.08 1.09-.23.16-.1.28-.27.37-.5.06-.16.09-.47.09-.91V8.53c-.55.81-1.25 1.21-2.1 1.21-.94 0-1.68-.43-2.23-1.28C.22 7.79 0 6.96 0 5.95 0 4.7.28 3.74.85 3.08c.56-.66 1.27-.99 2.1-.99.87 0 1.58.41 2.14 1.22V2.26h1.73v6.72c0 .88-.07 1.54-.21 1.98-.13.44-.33.78-.57 1.03-.24.25-.57.44-.99.59-.41.14-.93.21-1.56.21-1.18 0-2.03-.22-2.52-.65-.5-.43-.74-.99-.74-1.65.01-.08.01-.16.02-.26M1.9 5.84c0 .79.15 1.38.43 1.75.29.37.65.55 1.07.55.45 0 .83-.19 1.15-.57.31-.37.46-.93.46-1.68 0-.77-.15-1.35-.45-1.73s-.67-.56-1.13-.56c-.44 0-.81.18-1.1.55-.29.38-.43.94-.43 1.69m7.73 3.92H7.77V2.24H9.5v1.07c.29-.51.56-.84.8-1 .24-.16.5-.24.81-.24.43 0 .83.12 1.23.38l-.58 1.74c-.31-.22-.61-.33-.88-.33a1 1 0 00-.66.23c-.18.15-.32.43-.43.83-.1.4-.16 1.24-.16 2.52v2.32zm9.22-5.29l-1.82.35c-.06-.39-.2-.68-.42-.88-.22-.2-.5-.29-.85-.29-.46 0-.83.17-1.1.51-.27.34-.41.91-.41 1.71 0 .89.14 1.51.42 1.88.28.37.65.55 1.12.55.35 0 .64-.11.86-.32.22-.21.38-.58.48-1.1l1.82.33c-.19.89-.55 1.57-1.09 2.02-.54.45-1.26.68-2.15.68-1.03 0-1.84-.34-2.45-1.04-.61-.69-.91-1.65-.91-2.87 0-1.23.31-2.2.92-2.88.61-.69 1.44-1.03 2.48-1.03.85 0 1.53.2 2.03.59.49.39.85.99 1.07 1.79"/><path d="M21.98 4.17v2.3c0 .89.49 1.28 1.17 1.28.48 0 .85-.21 1.06-.58h.01v.49h.87v-3.5h-.91v2.01c0 .62-.41.8-.71.8-.28 0-.6-.11-.6-.65V4.16l-.89.01zm5.87 1.79v.45c0 .42-.42.69-.82.69-.18 0-.43-.1-.43-.42 0-.38.28-.47.62-.53.39-.06.54-.12.63-.19m-1.16-.66c.02-.2.1-.49.56-.49.23 0 .6.02.6.41 0 .17-.15.27-.53.31-.87.07-1.62.4-1.62 1.21 0 .72.53 1.02 1.05 1.02.62 0 .92-.29 1.12-.51.02.2.03.24.08.42h.98v-.15c-.11-.04-.2-.13-.2-.54V5.09c0-.87-.89-1.01-1.38-1.01-.71 0-1.45.15-1.55 1.22h.89z" fill="#fff"/><path fill="none" d="M0 .41h31v12.37H0z"/></svg>