<svg xmlns="http://www.w3.org/2000/svg" viewBox="0 0 17 17"><path d="M8.5.5c-4.42 0-8 3.58-8 8s3.58 8 8 8 8-3.58 8-8-3.58-8-8-8zm-1.61 9.78c0 .6-.05 1.05-.14 1.36-.09.3-.22.53-.39.71-.17.17-.39.3-.68.4-.28.1-.64.15-1.07.15-.82 0-1.39-.15-1.74-.45-.33-.28-.52-.7-.51-1.13v-.16l1.45.19c.02.18.08.3.17.37.12.1.31.15.57.15.33 0 .58-.05.75-.16.11-.07.2-.19.25-.34.04-.11.06-.32.06-.62v-.77c-.38.55-.86.83-1.44.83-.65 0-1.16-.29-1.54-.87-.3-.46-.44-1.03-.44-1.71 0-.86.19-1.52.58-1.97.39-.46.87-.69 1.44-.69.59 0 1.09.28 1.47.83v-.71h1.19l.02 4.59zm3.37-3.27c-.21-.15-.41-.22-.6-.22-.18 0-.33.05-.45.16-.13.1-.22.29-.29.57-.08.26-.12.84-.12 1.7v1.58H7.53V5.69h1.18v.73c.2-.34.38-.57.54-.68.16-.11.36-.17.55-.16.29 0 .57.09.84.26l-.38 1.17zm4.21 3.44c-.37.31-.86.47-1.48.47-.71 0-1.26-.23-1.68-.71-.42-.48-.63-1.12-.63-1.96 0-.85.21-1.51.63-1.97.42-.47.99-.71 1.7-.71.59 0 1.05.14 1.4.4.35.27.59.68.74 1.23l-1.25.24c-.04-.27-.14-.47-.29-.6-.15-.14-.34-.2-.58-.2-.32 0-.57.12-.76.35-.19.23-.28.62-.28 1.17 0 .61.1 1.04.29 1.29.19.25.45.38.77.38.24 0 .44-.07.59-.22.15-.15.26-.4.32-.75l1.25.23c-.12.59-.37 1.05-.74 1.36zM4.55 6.61c-.3 0-.56.13-.75.38-.21.25-.3.63-.3 1.15 0 .54.1.94.29 1.19.2.25.44.38.73.38.31 0 .58-.13.79-.39.21-.26.32-.64.32-1.15 0-.53-.1-.92-.31-1.18a.925.925 0 00-.77-.38z" fill="#fff"/></svg>