<svg width="88" height="48" xmlns="http://www.w3.org/2000/svg"><g fill="none"><path d="M6.6.084V14.02c2.092-2.53 4.6-3.805 7.509-3.805 1.498 0 2.841.289 4.042.867 1.207.57 2.11 1.305 2.718 2.197a8.1 8.1 0 011.25 2.97c.223 1.08.334 2.76.334 5.04v14.904h-6.499V22.77c0-2.661-.118-4.35-.365-5.065a3.282 3.282 0 00-1.307-1.707c-.624-.427-1.404-.64-2.345-.64-1.077 0-2.043.275-2.885.816-.854.545-1.473 1.362-1.863 2.454-.397 1.093-.595 2.705-.588 4.84l-.006 12.725H.1V.084h6.5m25.597 0V14.02c2.091-2.53 4.598-3.805 7.508-3.805 1.491 0 2.84.289 4.048.867 1.2.57 2.104 1.305 2.712 2.197a8.1 8.1 0 011.25 2.97c.223 1.08.334 2.76.334 5.04v14.904h-6.495V22.77c0-2.661-.123-4.35-.37-5.065a3.28 3.28 0 00-1.307-1.707c-.619-.427-1.405-.64-2.346-.64-1.077 0-2.042.275-2.884.816-.848.545-1.467 1.362-1.864 2.454-.39 1.093-.586 2.705-.586 4.84v12.725h-6.495V.084h6.495M.12 47.385v-7.283h.866v2.995h3.391l-.006-2.995h.867v7.283H4.37v-3.434H.986v3.434H.12m9.644-1.701l.829.112c-.13.546-.37.961-.724 1.256-.353.3-.804.451-1.356.451-.693 0-1.238-.239-1.645-.715-.403-.471-.607-1.143-.607-1.997 0-.885.204-1.575.612-2.065.41-.49.948-.733 1.597-.733a1.93 1.93 0 011.548.715c.402.483.607 1.155.607 2.027-.006.05 0 .133-.006.24H7.09c.031.576.18 1.021.44 1.33.266.308.594.465.99.465.29 0 .543-.087.755-.264.204-.17.371-.445.49-.822M7.134 44.24h2.643c-.037-.44-.137-.779-.304-.998-.254-.346-.587-.515-.996-.515-.366 0-.675.133-.923.409-.254.276-.39.647-.42 1.105m7.5 2.49c-.29.283-.575.484-.854.597a2.166 2.166 0 01-.879.176c-.525 0-.92-.145-1.2-.427-.28-.283-.416-.647-.422-1.087a1.55 1.55 0 01.576-1.218 1.73 1.73 0 01.576-.295c.154-.05.39-.088.71-.131.652-.089 1.122-.19 1.432-.315.006-.118.006-.2.006-.232 0-.365-.081-.615-.229-.767-.204-.2-.514-.3-.91-.3-.377 0-.656.07-.835.22-.18.145-.316.408-.397.78l-.785-.12c.067-.37.185-.672.353-.904.16-.232.395-.408.704-.533.31-.12.663-.182 1.072-.182.402 0 .73.05.983.155.255.108.44.24.558.396.118.164.205.365.249.615.025.151.044.427.044.823v1.193c0 .829.012 1.356.048 1.576.031.22.106.426.205.634h-.836a2.173 2.173 0 01-.168-.654m-.061-1.996c-.291.133-.73.245-1.306.34-.335.05-.57.112-.706.182a.685.685 0 00-.31.288.802.802 0 00-.117.42c0 .238.086.44.247.596.162.164.396.239.706.239.315 0 .589-.069.829-.22a1.39 1.39 0 00.527-.627c.086-.202.13-.496.13-.892v-.326m5.069 2.65v-.666c-.297.521-.737.785-1.318.785-.379 0-.725-.113-1.041-.352a2.187 2.187 0 01-.73-.966c-.18-.415-.26-.891-.26-1.438a4.2 4.2 0 01.23-1.431c.16-.427.395-.753.711-.985.31-.227.662-.34 1.058-.34.279 0 .533.063.756.2.222.133.402.309.544.529v-2.619h.793v7.283h-.743m-2.526-2.637c-.007.678.124 1.187.378 1.52.26.333.557.502.904.502.352 0 .65-.163.891-.477.247-.326.371-.81.371-1.468 0-.722-.13-1.25-.377-1.589-.248-.332-.557-.502-.923-.502-.352 0-.65.164-.891.484-.235.326-.359.835-.353 1.532m4.618 2.635v-7.283h.86v2.995h3.392v-2.995h.866v7.283h-.866V43.95h-3.391v3.435h-.86m9.508 0v-.78c-.366.604-.867.898-1.505.898-.278 0-.539-.056-.78-.18a1.296 1.296 0 01-.539-.447 1.843 1.843 0 01-.246-.666 5.195 5.195 0 01-.05-.835v-3.264h.804v2.925c0 .465.018.778.05.942.05.239.156.42.316.552.168.137.366.2.607.2.242 0 .47-.068.68-.206.204-.132.36-.327.446-.559.088-.238.131-.577.131-1.03v-2.823h.798v5.272h-.71m1.922.001V42.11h.718v.748c.345-.578.854-.866 1.51-.866.279 0 .544.056.78.17.241.111.42.262.538.445.118.187.204.407.248.665.031.162.05.451.05.866v3.246h-.804v-3.208c0-.364-.032-.641-.094-.817a.857.857 0 00-.328-.432 1.013 1.013 0 00-.564-.164c-.34 0-.637.12-.885.365-.247.239-.371.697-.365 1.375l-.006 2.882h-.798m6.772-.804l.118.79a2.51 2.51 0 01-.608.082c-.29 0-.513-.05-.674-.156a.818.818 0 01-.34-.402c-.062-.164-.093-.521-.093-1.055v-3.038h-.595v-.69h.595v-1.306l.798-.54-.006 1.845h.804v.692h-.804v3.087c0 .252.012.415.044.49.025.07.073.133.135.176a.56.56 0 00.279.063c.087 0 .204-.013.347-.038m3.98-.897l.823.112c-.13.546-.37.961-.723 1.262-.354.294-.806.445-1.35.445-.694 0-1.245-.239-1.647-.715-.408-.471-.613-1.143-.613-1.997 0-.885.211-1.575.62-2.065.408-.49.94-.733 1.59-.733.632 0 1.152.238 1.555.715.396.483.6 1.155.6 2.027 0 .05-.006.133-.006.24h-3.528c.03.576.18 1.021.44 1.33.266.308.594.465.99.465.29 0 .545-.087.755-.264.204-.17.371-.445.495-.822m-2.63-1.444h2.636c-.037-.44-.135-.779-.303-.998-.254-.346-.588-.515-.99-.515-.372 0-.68.133-.929.409-.254.276-.39.647-.414 1.105m4.406 3.144V42.11h.724v.798c.18-.377.347-.622.507-.742a.827.827 0 01.508-.174c.278 0 .552.093.829.288l-.277.83a1.028 1.028 0 00-.589-.197.706.706 0 00-.471.177.95.95 0 00-.296.49 3.64 3.64 0 00-.131 1.042v2.761h-.804" fill="#000"/><path d="M85.18 23.626c0 9.045-7.162 16.369-15.995 16.369-8.835 0-15.999-7.324-15.999-16.37 0-9.04 7.163-16.37 15.998-16.37 8.833 0 15.996 7.33 15.996 16.37" fill="#D6001C"/><path d="M61.613 18.383v6.805c0 .642.075 1.125.223 1.45.264.574.78.86 1.55.86.988 0 1.663-.407 2.028-1.221.189-.443.284-1.027.284-1.752v-6.142h2.928v11.29H65.82v-1.595a5.054 5.054 0 00-.202.31 2.074 2.074 0 01-.386.456c-.452.415-.89.698-1.312.85-.422.151-.917.227-1.485.227-1.635 0-2.736-.6-3.304-1.802-.318-.663-.476-1.64-.476-2.931v-6.805h2.96zm8.787 2.403v-2.403h9.344v2.455l-5.604 6.411h5.604v2.424H70.4v-2.3l5.665-6.587H70.4z" fill="#FFF"/></g></svg>