<svg width="30" height="30" xmlns="http://www.w3.org/2000/svg"><defs><linearGradient x1="50%" y1="0%" x2="50%" y2="100%" id="a"><stop stop-color="#FF322A" offset="0%"/><stop stop-color="#F0120D" offset="100%"/></linearGradient></defs><g fill="none" fill-rule="evenodd"><path d="M0 0v15s0 15 15 15 15-15 15-15V0H0z" fill="url(#a)"/><path d="M5.5 14.5h19V9c0-1.333-1.5-1.5-1.5-1.5h-4.5v-2h-7v2H7S5.5 7.667 5.5 9v5.5zm7-8h5v1h-5v-1zm-7 13v-4H10v2h1.5v-2h7v2H20v-2h4.5v4c0 1-1 1-1 1h-17s-1 0-1-1z" fill="#fff"/></g></svg>