<svg xmlns="http://www.w3.org/2000/svg" width="62" height="61" viewBox="0 0 62 61">
  <g fill="none" fill-rule="evenodd">
    <path fill="#D11604" d="M.2.1v30.8C.2 42.22 2 60.1 31 60.1s30.8-17.9 30.8-29.2V.1H.2z"/>
    <path fill="#FFF" d="M30.04 37.93V18.3h-4.1v7.9H17.1v-7.9h-4.13v19.63h4.1v-8.2h8.85v8.2h4.1zm8.2-16.32v6.07h3.6c2.08 0 3.3-1.1 3.3-3 0-1.87-1.3-3.04-3.33-3.04h-3.53zm0 9.2v7.15h-4.1V18.3h8.24c4.3 0 6.97 2.38 6.97 6.3 0 2.5-1.3 4.67-3.57 5.57l4.14 7.76h-4.65L41.6 30.8h-3.35z"/>
  </g>
</svg>