<svg fill="none" height="25" width="65" xmlns="http://www.w3.org/2000/svg"><path clip-rule="evenodd" d="M0 0h65v9.31H0z" fill="#c00" fill-rule="evenodd"/><path d="M19.111 7.153V2.1h1.611c.61 0 1 0 1.167.057.278.057.5.227.723.511.166.227.277.568.277.965 0 .284-.056.568-.167.795-.11.227-.222.397-.389.511-.166.113-.333.17-.5.227-.222.057-.555.057-1 .057h-.667v1.873h-1.055v.057zm.944-4.2V4.37h.556c.39 0 .667 0 .778-.057.11-.057.222-.113.333-.227.056-.113.111-.227.111-.397s-.055-.34-.166-.454a.895.895 0 0 0-.389-.227c-.111 0-.333-.057-.723-.057h-.5zm7.39 4.2h-1.056l-.444-1.136H24l-.389 1.136h-1.055L24.444 2.1H25.5zm-1.778-1.987L25 3.292l-.667 1.874zM28.11 2.1h3.667v.852H29.11v1.135h1.334c.389 0 .667.057.888.114.24.12.449.295.611.51.167.285.278.569.278.909.002.307-.096.607-.277.852-.163.216-.372.39-.612.51-.222.114-.555.114-.944.114h-2.334V2.1zm1 4.201h.945c.333 0 .5 0 .667-.056.11-.058.222-.114.333-.228a.519.519 0 0 0 .166-.397c0-.227-.056-.398-.222-.51s-.444-.171-.833-.171h-1.001v1.363h-.056zm3.778-1.646c0-.51.056-.965.222-1.305.111-.228.278-.512.445-.682.166-.227.389-.34.61-.454.34-.116.698-.174 1.056-.17.722 0 1.278.227 1.723.68.444.455.666 1.08.666 1.93 0 .796-.222 1.42-.666 1.875-.445.454-1 .68-1.723.68s-1.333-.226-1.722-.68c-.389-.455-.611-1.08-.611-1.874zm1.056-.057c0 .568.11 1.022.389 1.306.277.284.555.454 1 .454.388 0 .722-.17.944-.454.278-.284.389-.738.389-1.306 0-.568-.111-1.022-.39-1.305-.222-.284-.555-.398-1-.398-.388 0-.722.17-.999.455-.222.283-.333.68-.333 1.248zm5.388 2.555v-4.2H37.89V2.1h3.889v.852h-1.444v4.2h-1zm7.056 0h-1.055l-.445-1.136h-1.945l-.389 1.136H41.5l1.889-4.996h1.055zM44.61 5.166l-.722-1.874-.667 1.874z" fill="#fff"/><path clip-rule="evenodd" d="M10.833 15.214v-3.576H0v3.576h3.167v8.175h4.5v-8.175zm25.89 0v-3.576H25.888v3.576h3.167v8.175h4.5v-8.175z" fill="#fff" fill-rule="evenodd"/><path d="M12.11 19.134V11.64h12.444v7.494c0 2.554-2.389 4.881-6.222 4.881-4.056 0-6.222-2.327-6.222-4.881z" fill="#c00"/><g fill="#fff"><path d="M20.111 15.214v-3.576h-3.556v3.576h-2.222l4 5.393 4-5.393zM41.222 11.638h7.333c3.5 0 4.167 4.712 1.556 5.733 3.111.681 3.222 6.018-1.222 6.018h-7.667zm4.111 4.598h1.5c1.445 0 1.445-1.93 0-1.93h-1.5zm0 4.541h1.778c.279-.024.538-.154.727-.364a1.153 1.153 0 0 0 0-1.542c-.189-.21-.449-.34-.727-.364h-1.778z"/><path clip-rule="evenodd" d="M60.5 18.506l4.5-6.868h-4.777l-1.945 3.406-1.89-3.407h-4.832l4.5 6.87v4.882H60.5z" fill-rule="evenodd"/><path d="M37.389 23.9c1.105 0 2-.915 2-2.044s-.896-2.043-2-2.043-2 .915-2 2.043.895 2.044 2 2.044z"/></g></svg>
