<svg xmlns="http://www.w3.org/2000/svg" width="70" height="18" viewBox="0 0 70 18"><path fill-rule="evenodd" clip-rule="evenodd" fill="#CC1417" d="M0 0h70v18h-70z"/><path fill="#fff" d="M11.4 13.4v-8.8h2.9c1.1 0 1.8 0 2.1.1.5.1.9.4 1.3.9.3.4.5 1 .5 1.7 0 .5-.1 1-.3 1.4-.2.4-.4.7-.7.9-.3.2-.6.3-.9.4-.4.1-1 .1-1.8.1h-1.2v3.3h-1.9zm1.7-7.3v2.5h1c.7 0 1.2 0 1.4-.1s.4-.2.6-.4c.1-.2.2-.4.2-.7 0-.3-.1-.6-.3-.8-.2-.2-.4-.3-.7-.4-.2 0-.6-.1-1.3-.1h-.9zm13.3 7.3h-1.9l-.8-2h-3.5l-.7 2h-1.9l3.4-8.8h1.9l3.5 8.8zm-3.2-3.5l-1.2-3.3-1.2 3.3h2.4zm4.4-5.3h6.6v1.5h-4.8v2h2.4c.7 0 1.2.1 1.6.2.4.2.8.5 1.1.9.3.4.5.9.5 1.5s-.2 1.1-.5 1.5c-.3.4-.7.7-1.1.9-.4.2-1 .2-1.7.2h-4.2v-8.7h.1zm1.8 7.3h1.7c.6 0 .9 0 1.2-.1.2-.1.4-.2.6-.4.2-.2.3-.4.3-.7 0-.4-.1-.7-.4-.9-.3-.2-.8-.3-1.5-.3h-1.8v2.4zm6.8-2.8c0-.9.1-1.7.4-2.3.2-.4.5-.9.8-1.2.3-.4.7-.6 1.1-.8.6-.2 1.2-.3 1.9-.3 1.3 0 2.3.4 3.1 1.2.8.8 1.2 1.9 1.2 3.4 0 1.4-.4 2.5-1.2 3.3-.8.8-1.8 1.2-3.1 1.2s-2.4-.4-3.1-1.2c-.7-.8-1.1-1.9-1.1-3.3zm1.9-.1c0 1 .2 1.8.7 2.3.5.5 1 .8 1.8.8.7 0 1.3-.3 1.7-.8.5-.5.7-1.3.7-2.3 0-1-.2-1.8-.7-2.3-.4-.5-1-.7-1.8-.7-.7 0-1.3.3-1.8.8-.4.4-.6 1.2-.6 2.2zm9.7 4.4v-7.3h-2.6v-1.5h7v1.5h-2.6v7.3zm12.7 0h-1.9l-.8-2h-3.5l-.7 2h-1.9l3.4-8.8h1.9l3.5 8.8zm-3.2-3.5l-1.3-3.3-1.2 3.3h2.5z"/></svg>