<svg width="65" height="14" fill="none" xmlns="http://www.w3.org/2000/svg"><g clip-path="url(#clip0)" fill="#CCC"><path fill-rule="evenodd" clip-rule="evenodd" d="M10.833 4.576V1.001H0v3.576h3.167v8.175h4.5V4.576h3.166zm25.89 0V1.001H25.888v3.576h3.167v8.175h4.5V4.576h3.166zM20.111 1.003v3.574h2.222l-4 5.393-4-5.394h2.222V1.003H12.11v7.493c0 2.555 2.166 4.882 6.222 4.882 3.833 0 6.222-2.327 6.222-4.882V1.003h-4.443z"/><path d="M41.222 1h7.334c3.5 0 4.166 4.712 1.555 5.734 3.111.681 3.222 6.018-1.222 6.018h-7.667V1zm4.111 4.598h1.5c1.445 0 1.445-1.93 0-1.93h-1.5v1.93zm0 4.542h1.778c.279-.024.538-.154.727-.364a1.153 1.153 0 0 0 0-1.542c-.189-.21-.449-.34-.727-.365h-1.777v2.271z"/><path fill-rule="evenodd" clip-rule="evenodd" d="M60.5 7.87L65 1h-4.778l-1.944 3.407L56.388 1h-4.832l4.5 6.87v4.882H60.5V7.869z"/><path d="M37.389 13.262c1.104 0 2-.914 2-2.043s-.896-2.044-2-2.044c-1.105 0-2 .915-2 2.044s.895 2.043 2 2.043z"/></g><defs><clipPath id="clip0"><path fill="#fff" d="M0 0h65v14H0z"/></clipPath></defs></svg>